<mxfile host="65bd71144e">
    <diagram id="OUbmnmgiFA35l-AEfBl3" name="Страница 1">
        <mxGraphModel dx="1072" dy="478" grid="1" gridSize="10" guides="1" tooltips="1" connect="1" arrows="1" fold="1" page="1" pageScale="1" pageWidth="827" pageHeight="1169" math="0" shadow="0">
            <root>
                <mxCell id="0"/>
                <mxCell id="1" parent="0"/>
                <mxCell id="293" style="edgeStyle=orthogonalEdgeStyle;rounded=0;orthogonalLoop=1;jettySize=auto;html=1;exitX=0.5;exitY=1;exitDx=0;exitDy=0;entryX=0.5;entryY=0;entryDx=0;entryDy=0;shadow=1;endArrow=diamond;endFill=0;strokeWidth=1;startArrow=open;startFill=0;" parent="1" source="3" target="72" edge="1">
                    <mxGeometry relative="1" as="geometry"/>
                </mxCell>
                <mxCell id="3" value="Presenter" style="swimlane;startSize=23;swimlaneFillColor=#333333;" parent="1" vertex="1">
                    <mxGeometry x="1155" y="810" width="230" height="110" as="geometry">
                        <mxRectangle x="314" y="80" width="100" height="23" as="alternateBounds"/>
                    </mxGeometry>
                </mxCell>
                <mxCell id="5" value="" style="line;strokeWidth=2;html=1;" parent="3" vertex="1">
                    <mxGeometry y="70" width="230" height="10" as="geometry"/>
                </mxCell>
                <mxCell id="9" value="&lt;div style=&quot;line-height: 19px&quot;&gt;&lt;font style=&quot;font-size: 12px&quot; color=&quot;#ffffff&quot;&gt;+ init(): void&lt;/font&gt;&lt;/div&gt;" style="text;html=1;align=left;verticalAlign=middle;resizable=0;points=[];autosize=1;" parent="3" vertex="1">
                    <mxGeometry x="10" y="80" width="80" height="20" as="geometry"/>
                </mxCell>
                <mxCell id="373" value="&lt;font color=&quot;#ffffff&quot;&gt;- view: View&lt;/font&gt;" style="text;html=1;align=left;verticalAlign=middle;resizable=0;points=[];autosize=1;" parent="3" vertex="1">
                    <mxGeometry x="9" y="50" width="80" height="20" as="geometry"/>
                </mxCell>
                <mxCell id="374" value="&lt;font color=&quot;#ffffff&quot;&gt;- model: Model&lt;/font&gt;" style="text;html=1;align=left;verticalAlign=middle;resizable=0;points=[];autosize=1;" parent="3" vertex="1">
                    <mxGeometry x="10" y="30" width="90" height="20" as="geometry"/>
                </mxCell>
                <mxCell id="24" value="AbstractView" style="swimlane;fontStyle=3;swimlaneFillColor=#333333;" parent="1" vertex="1">
                    <mxGeometry x="1050" y="2080" width="440" height="240" as="geometry"/>
                </mxCell>
                <mxCell id="27" value="&lt;div style=&quot;line-height: 19px&quot;&gt;&lt;font style=&quot;font-size: 12px&quot; color=&quot;#ffffff&quot;&gt;+ get element(): HTMLElement&lt;/font&gt;&lt;/div&gt;" style="text;html=1;align=left;verticalAlign=middle;resizable=0;points=[];autosize=1;" parent="24" vertex="1">
                    <mxGeometry x="10" y="80" width="180" height="20" as="geometry"/>
                </mxCell>
                <mxCell id="28" value="&lt;div style=&quot;line-height: 19px&quot;&gt;&lt;font style=&quot;font-size: 12px&quot; color=&quot;#ffffff&quot;&gt;# get className(): string&lt;/font&gt;&lt;/div&gt;" style="text;html=1;align=left;verticalAlign=middle;resizable=0;points=[];autosize=1;" parent="24" vertex="1">
                    <mxGeometry x="10" y="120" width="150" height="20" as="geometry"/>
                </mxCell>
                <mxCell id="29" value="&lt;div style=&quot;line-height: 19px&quot;&gt;&lt;font style=&quot;font-size: 12px&quot; color=&quot;#ffffff&quot;&gt;# get template(): string&lt;/font&gt;&lt;/div&gt;" style="text;html=1;align=left;verticalAlign=middle;resizable=0;points=[];autosize=1;" parent="24" vertex="1">
                    <mxGeometry x="10" y="140" width="140" height="20" as="geometry"/>
                </mxCell>
                <mxCell id="32" value="&lt;div style=&quot;line-height: 19px&quot;&gt;&lt;span style=&quot;color: rgb(255 , 255 , 255)&quot;&gt;# bind(): void&lt;/span&gt;&lt;br&gt;&lt;/div&gt;" style="text;html=1;align=left;verticalAlign=middle;resizable=0;points=[];autosize=1;" parent="24" vertex="1">
                    <mxGeometry x="10" y="160" width="80" height="20" as="geometry"/>
                </mxCell>
                <mxCell id="33" value="&lt;div style=&quot;line-height: 19px&quot;&gt;&lt;span style=&quot;color: rgb(255 , 255 , 255)&quot;&gt;- createElement(&lt;/span&gt;&lt;span style=&quot;color: rgb(255 , 255 , 255)&quot;&gt;template: string,&amp;nbsp;&lt;/span&gt;&lt;span style=&quot;color: rgb(255 , 255 , 255)&quot;&gt;className: string&lt;/span&gt;&lt;span style=&quot;color: rgb(255 , 255 , 255)&quot;&gt;): HTMLElement&lt;/span&gt;&lt;/div&gt;" style="text;html=1;align=left;verticalAlign=middle;resizable=0;points=[];autosize=1;" parent="24" vertex="1">
                    <mxGeometry x="10" y="180" width="380" height="20" as="geometry"/>
                </mxCell>
                <mxCell id="43" value="&lt;font color=&quot;#ffffff&quot;&gt;- elem&lt;/font&gt;" style="text;html=1;align=left;verticalAlign=middle;resizable=0;points=[];autosize=1;" parent="24" vertex="1">
                    <mxGeometry x="10" y="50" width="50" height="20" as="geometry"/>
                </mxCell>
                <mxCell id="44" value="" style="line;strokeWidth=2;html=1;" parent="24" vertex="1">
                    <mxGeometry y="70" width="440" height="10" as="geometry"/>
                </mxCell>
                <mxCell id="95" value="&lt;font color=&quot;#ffffff&quot;&gt;+ model&lt;/font&gt;" style="text;html=1;align=left;verticalAlign=middle;resizable=0;points=[];autosize=1;" parent="24" vertex="1">
                    <mxGeometry x="10" y="30" width="60" height="20" as="geometry"/>
                </mxCell>
                <mxCell id="31" value="&lt;div style=&quot;line-height: 19px&quot;&gt;&lt;span style=&quot;color: rgb(255 , 255 , 255)&quot;&gt;- render(): HTMLElement&lt;/span&gt;&lt;br&gt;&lt;/div&gt;" style="text;html=1;align=left;verticalAlign=middle;resizable=0;points=[];autosize=1;" parent="24" vertex="1">
                    <mxGeometry x="10" y="200" width="150" height="20" as="geometry"/>
                </mxCell>
                <mxCell id="238" value="&lt;div style=&quot;line-height: 19px&quot;&gt;&lt;font style=&quot;font-size: 12px&quot; color=&quot;#ffffff&quot;&gt;+ get updatedElement(): HTMLElement&lt;/font&gt;&lt;/div&gt;" style="text;html=1;align=left;verticalAlign=middle;resizable=0;points=[];autosize=1;" parent="24" vertex="1">
                    <mxGeometry x="10" y="100" width="220" height="20" as="geometry"/>
                </mxCell>
                <mxCell id="431" style="edgeStyle=orthogonalEdgeStyle;rounded=0;orthogonalLoop=1;jettySize=auto;html=1;exitX=1;exitY=0.25;exitDx=0;exitDy=0;fillColor=#a20025;strokeColor=#6F0000;" parent="1" source="65" edge="1">
                    <mxGeometry relative="1" as="geometry">
                        <mxPoint x="1095" y="1690" as="targetPoint"/>
                    </mxGeometry>
                </mxCell>
                <mxCell id="65" value="TrackView" style="swimlane;swimlaneFillColor=#333333;" parent="1" vertex="1">
                    <mxGeometry x="780" y="1840" width="259" height="80" as="geometry"/>
                </mxCell>
                <mxCell id="66" value="&lt;div style=&quot;line-height: 19px&quot;&gt;&lt;br&gt;&lt;/div&gt;" style="text;html=1;align=left;verticalAlign=middle;resizable=0;points=[];autosize=1;" parent="65" vertex="1">
                    <mxGeometry x="8" y="90" width="20" height="20" as="geometry"/>
                </mxCell>
                <mxCell id="386" value="&lt;div style=&quot;line-height: 19px&quot;&gt;&lt;font style=&quot;font-size: 12px&quot; color=&quot;#ffffff&quot;&gt;+ handleToggleMouseDown(evt: Event): void&lt;/font&gt;&lt;/div&gt;" style="text;html=1;align=left;verticalAlign=middle;resizable=0;points=[];autosize=1;" parent="65" vertex="1">
                    <mxGeometry x="4" y="30" width="250" height="20" as="geometry"/>
                </mxCell>
                <mxCell id="72" value="Views" style="swimlane;swimlaneFillColor=#333333;" parent="1" vertex="1">
                    <mxGeometry x="945" y="990" width="650" height="700" as="geometry">
                        <mxRectangle x="314" y="80" width="100" height="23" as="alternateBounds"/>
                    </mxGeometry>
                </mxCell>
                <mxCell id="115" value="" style="line;strokeWidth=2;html=1;" parent="72" vertex="1">
                    <mxGeometry y="150" width="650" height="10" as="geometry"/>
                </mxCell>
                <mxCell id="170" value="&lt;div style=&quot;line-height: 19px&quot;&gt;&lt;font style=&quot;font-size: 12px&quot; color=&quot;#ffffff&quot;&gt;- showConfiguringView(): void&lt;/font&gt;&lt;/div&gt;" style="text;html=1;align=left;verticalAlign=middle;resizable=0;points=[];autosize=1;" parent="72" vertex="1">
                    <mxGeometry x="10" y="540" width="170" height="20" as="geometry"/>
                </mxCell>
                <mxCell id="205" value="&lt;div style=&quot;line-height: 19px&quot;&gt;&lt;font style=&quot;font-size: 12px&quot; color=&quot;#ffffff&quot;&gt;- showFlagView(): void&lt;/font&gt;&lt;/div&gt;" style="text;html=1;align=left;verticalAlign=middle;resizable=0;points=[];autosize=1;" parent="72" vertex="1">
                    <mxGeometry x="10" y="560" width="140" height="20" as="geometry"/>
                </mxCell>
                <mxCell id="206" value="&lt;div style=&quot;line-height: 19px&quot;&gt;&lt;font style=&quot;font-size: 12px&quot; color=&quot;#ffffff&quot;&gt;- showScaleView(): void&lt;/font&gt;&lt;/div&gt;" style="text;html=1;align=left;verticalAlign=middle;resizable=0;points=[];autosize=1;" parent="72" vertex="1">
                    <mxGeometry x="10" y="600" width="140" height="20" as="geometry"/>
                </mxCell>
                <mxCell id="358" value="&lt;div style=&quot;line-height: 19px&quot;&gt;&lt;font style=&quot;font-size: 12px&quot; color=&quot;#ffffff&quot;&gt;- replaceScreenConfiguring(): void&lt;/font&gt;&lt;/div&gt;" style="text;html=1;align=left;verticalAlign=middle;resizable=0;points=[];autosize=1;" parent="72" vertex="1">
                    <mxGeometry x="10" y="360" width="200" height="20" as="geometry"/>
                </mxCell>
                <mxCell id="359" value="&lt;div style=&quot;line-height: 19px&quot;&gt;&lt;font style=&quot;font-size: 12px&quot; color=&quot;#ffffff&quot;&gt;- replaceScreenFlag(): void&lt;/font&gt;&lt;/div&gt;" style="text;html=1;align=left;verticalAlign=middle;resizable=0;points=[];autosize=1;" parent="72" vertex="1">
                    <mxGeometry x="10" y="380" width="160" height="20" as="geometry"/>
                </mxCell>
                <mxCell id="375" value="&lt;div style=&quot;line-height: 19px&quot;&gt;&lt;font style=&quot;font-size: 12px&quot; color=&quot;#ffffff&quot;&gt;- replaceScreenScale(): void&lt;/font&gt;&lt;/div&gt;" style="text;html=1;align=left;verticalAlign=middle;resizable=0;points=[];autosize=1;" parent="72" vertex="1">
                    <mxGeometry x="10" y="420" width="170" height="20" as="geometry"/>
                </mxCell>
                <mxCell id="376" value="&lt;div style=&quot;line-height: 19px&quot;&gt;&lt;font style=&quot;font-size: 12px&quot; color=&quot;#ffffff&quot;&gt;- replaceScreenTrack(): void&lt;/font&gt;&lt;/div&gt;" style="text;html=1;align=left;verticalAlign=middle;resizable=0;points=[];autosize=1;" parent="72" vertex="1">
                    <mxGeometry x="10" y="440" width="170" height="20" as="geometry"/>
                </mxCell>
                <mxCell id="377" value="&lt;div style=&quot;line-height: 19px&quot;&gt;&lt;font style=&quot;font-size: 12px&quot; color=&quot;#ffffff&quot;&gt;- replaceToggle(evt: Event, toggle: HTMLElement): void&lt;/font&gt;&lt;/div&gt;" style="text;html=1;align=left;verticalAlign=middle;resizable=0;points=[];autosize=1;" parent="72" vertex="1">
                    <mxGeometry x="10" y="460" width="310" height="20" as="geometry"/>
                </mxCell>
                <mxCell id="380" value="&lt;div style=&quot;line-height: 19px&quot;&gt;&lt;font style=&quot;font-size: 12px&quot; color=&quot;#ffffff&quot;&gt;- updateMaxValue(input: HTMLElement): void&lt;/font&gt;&lt;/div&gt;" style="text;html=1;align=left;verticalAlign=middle;resizable=0;points=[];autosize=1;" parent="72" vertex="1">
                    <mxGeometry x="10" y="640" width="260" height="20" as="geometry"/>
                </mxCell>
                <mxCell id="398" value="&lt;div style=&quot;line-height: 19px&quot;&gt;&lt;font style=&quot;font-size: 12px&quot; color=&quot;#ffffff&quot;&gt;- handleFlagMouseDown(evt: Event): void&lt;/font&gt;&lt;/div&gt;" style="text;html=1;align=left;verticalAlign=middle;resizable=0;points=[];autosize=1;" parent="72" vertex="1">
                    <mxGeometry x="10" y="200" width="240" height="20" as="geometry"/>
                </mxCell>
                <mxCell id="399" value="&lt;div style=&quot;line-height: 19px&quot;&gt;&lt;font style=&quot;font-size: 12px&quot; color=&quot;#ffffff&quot;&gt;- handleItemClick(evt: Event &amp;amp; {pageX: number, pageY: number&lt;/font&gt;&lt;span style=&quot;color: rgb(255 , 255 , 255)&quot;&gt;}): void&lt;/span&gt;&lt;/div&gt;" style="text;html=1;align=left;verticalAlign=middle;resizable=0;points=[];autosize=1;" parent="72" vertex="1">
                    <mxGeometry x="10" y="240" width="390" height="20" as="geometry"/>
                </mxCell>
                <mxCell id="387" value="&lt;div style=&quot;line-height: 19px&quot;&gt;&lt;font style=&quot;font-size: 12px&quot; color=&quot;#ffffff&quot;&gt;- handleInputChange(evt: Event): void&lt;/font&gt;&lt;/div&gt;" style="text;html=1;align=left;verticalAlign=middle;resizable=0;points=[];autosize=1;" parent="72" vertex="1">
                    <mxGeometry x="10" y="220" width="220" height="20" as="geometry"/>
                </mxCell>
                <mxCell id="388" value="&lt;div style=&quot;line-height: 19px&quot;&gt;&lt;font style=&quot;font-size: 12px&quot; color=&quot;#ffffff&quot;&gt;- handleToggleMouseDown(evt: Event): void&lt;/font&gt;&lt;/div&gt;" style="text;html=1;align=left;verticalAlign=middle;resizable=0;points=[];autosize=1;" parent="72" vertex="1">
                    <mxGeometry x="10" y="260" width="250" height="20" as="geometry"/>
                </mxCell>
                <mxCell id="360" value="&lt;div style=&quot;line-height: 19px&quot;&gt;&lt;font style=&quot;font-size: 12px&quot; color=&quot;#ffffff&quot;&gt;+ init(): void&lt;/font&gt;&lt;/div&gt;" style="text;html=1;align=left;verticalAlign=middle;resizable=0;points=[];autosize=1;" parent="72" vertex="1">
                    <mxGeometry x="10" y="160" width="80" height="20" as="geometry"/>
                </mxCell>
                <mxCell id="413" value="&lt;div style=&quot;line-height: 19px&quot;&gt;&lt;font style=&quot;font-size: 12px&quot; color=&quot;#ffffff&quot;&gt;- model: Model&lt;/font&gt;&lt;/div&gt;" style="text;html=1;align=left;verticalAlign=middle;resizable=0;points=[];autosize=1;" parent="72" vertex="1">
                    <mxGeometry x="10" y="30" width="90" height="20" as="geometry"/>
                </mxCell>
                <mxCell id="414" value="&lt;div style=&quot;line-height: 19px&quot;&gt;&lt;font style=&quot;font-size: 12px&quot; color=&quot;#ffffff&quot;&gt;- trackView: TrackView&lt;/font&gt;&lt;/div&gt;" style="text;html=1;align=left;verticalAlign=middle;resizable=0;points=[];autosize=1;" parent="72" vertex="1">
                    <mxGeometry x="10" y="50" width="140" height="20" as="geometry"/>
                </mxCell>
                <mxCell id="415" value="&lt;div style=&quot;line-height: 19px&quot;&gt;&lt;font style=&quot;font-size: 12px&quot; color=&quot;#ffffff&quot;&gt;- progressView: ProgressView&lt;/font&gt;&lt;/div&gt;" style="text;html=1;align=left;verticalAlign=middle;resizable=0;points=[];autosize=1;" parent="72" vertex="1">
                    <mxGeometry x="10" y="70" width="180" height="20" as="geometry"/>
                </mxCell>
                <mxCell id="416" value="&lt;div style=&quot;line-height: 19px&quot;&gt;&lt;font style=&quot;font-size: 12px&quot; color=&quot;#ffffff&quot;&gt;- configuringView: ConfiguringView&lt;/font&gt;&lt;/div&gt;" style="text;html=1;align=left;verticalAlign=middle;resizable=0;points=[];autosize=1;" parent="72" vertex="1">
                    <mxGeometry x="10" y="90" width="200" height="20" as="geometry"/>
                </mxCell>
                <mxCell id="417" value="&lt;div style=&quot;line-height: 19px&quot;&gt;&lt;font style=&quot;font-size: 12px&quot; color=&quot;#ffffff&quot;&gt;- scaleView: ScaleView&lt;/font&gt;&lt;/div&gt;" style="text;html=1;align=left;verticalAlign=middle;resizable=0;points=[];autosize=1;" parent="72" vertex="1">
                    <mxGeometry x="10" y="110" width="140" height="20" as="geometry"/>
                </mxCell>
                <mxCell id="418" value="&lt;div style=&quot;line-height: 19px&quot;&gt;&lt;font style=&quot;font-size: 12px&quot; color=&quot;#ffffff&quot;&gt;- flagView: FlagView&lt;/font&gt;&lt;/div&gt;" style="text;html=1;align=left;verticalAlign=middle;resizable=0;points=[];autosize=1;" parent="72" vertex="1">
                    <mxGeometry x="10" y="130" width="120" height="20" as="geometry"/>
                </mxCell>
                <mxCell id="402" value="&lt;div style=&quot;line-height: 19px&quot;&gt;&lt;font style=&quot;font-size: 12px&quot; color=&quot;#ffffff&quot;&gt;- importHandlers(): void&lt;/font&gt;&lt;/div&gt;" style="text;html=1;align=left;verticalAlign=middle;resizable=0;points=[];autosize=1;" parent="72" vertex="1">
                    <mxGeometry x="10" y="280" width="140" height="20" as="geometry"/>
                </mxCell>
                <mxCell id="401" value="&lt;div style=&quot;line-height: 19px&quot;&gt;&lt;font style=&quot;font-size: 12px&quot; color=&quot;#ffffff&quot;&gt;- importModules(main: HTMLElement, state: StateType): void&lt;/font&gt;&lt;/div&gt;" style="text;html=1;align=left;verticalAlign=middle;resizable=0;points=[];autosize=1;" parent="72" vertex="1">
                    <mxGeometry x="10" y="300" width="340" height="20" as="geometry"/>
                </mxCell>
                <mxCell id="420" value="&lt;div style=&quot;line-height: 19px&quot;&gt;&lt;font style=&quot;font-size: 12px&quot; color=&quot;#ffffff&quot;&gt;- mouseMoveX(evt: Event &amp;amp; {touches: TouchList, pageX: number&lt;/font&gt;&lt;span style=&quot;color: rgb(255 , 255 , 255)&quot;&gt;}, slider: HTMLElement, toggle: HTMLElement): void&lt;/span&gt;&lt;/div&gt;" style="text;html=1;align=left;verticalAlign=middle;resizable=0;points=[];autosize=1;" parent="72" vertex="1">
                    <mxGeometry x="10" y="320" width="640" height="20" as="geometry"/>
                </mxCell>
                <mxCell id="421" value="&lt;div style=&quot;line-height: 19px&quot;&gt;&lt;font style=&quot;font-size: 12px&quot; color=&quot;#ffffff&quot;&gt;- mouseMoveY(evt: Event &amp;amp; {touches: TouchList, pageY: number&lt;/font&gt;&lt;span style=&quot;color: rgb(255 , 255 , 255)&quot;&gt;}, slider: HTMLElement, toggle: HTMLElement): void&lt;/span&gt;&lt;/div&gt;" style="text;html=1;align=left;verticalAlign=middle;resizable=0;points=[];autosize=1;" parent="72" vertex="1">
                    <mxGeometry x="10" y="340" width="640" height="20" as="geometry"/>
                </mxCell>
                <mxCell id="422" value="&lt;div style=&quot;line-height: 19px&quot;&gt;&lt;font style=&quot;font-size: 12px&quot; color=&quot;#ffffff&quot;&gt;- replaceScreenProgress(): void&lt;/font&gt;&lt;/div&gt;" style="text;html=1;align=left;verticalAlign=middle;resizable=0;points=[];autosize=1;" parent="72" vertex="1">
                    <mxGeometry x="10" y="400" width="180" height="20" as="geometry"/>
                </mxCell>
                <mxCell id="423" value="&lt;div style=&quot;line-height: 19px&quot;&gt;&lt;font style=&quot;font-size: 12px&quot; color=&quot;#ffffff&quot;&gt;- setToValue(current: number): {value: number, stepPercentResult: number}&lt;/font&gt;&lt;/div&gt;" style="text;html=1;align=left;verticalAlign=middle;resizable=0;points=[];autosize=1;" parent="72" vertex="1">
                    <mxGeometry x="10" y="520" width="420" height="20" as="geometry"/>
                </mxCell>
                <mxCell id="424" value="&lt;div style=&quot;line-height: 19px&quot;&gt;&lt;font style=&quot;font-size: 12px&quot; color=&quot;#ffffff&quot;&gt;- setPosition(element: HTMLElement, position: string, valuePercent: number, value: string): void&lt;/font&gt;&lt;/div&gt;" style="text;html=1;align=left;verticalAlign=middle;resizable=0;points=[];autosize=1;" parent="72" vertex="1">
                    <mxGeometry x="10" y="500" width="520" height="20" as="geometry"/>
                </mxCell>
                <mxCell id="425" value="&lt;div style=&quot;line-height: 19px&quot;&gt;&lt;font style=&quot;font-size: 12px&quot; color=&quot;#ffffff&quot;&gt;- showProgressView(): void&lt;/font&gt;&lt;/div&gt;" style="text;html=1;align=left;verticalAlign=middle;resizable=0;points=[];autosize=1;" parent="72" vertex="1">
                    <mxGeometry x="10" y="580" width="160" height="20" as="geometry"/>
                </mxCell>
                <mxCell id="426" value="&lt;div style=&quot;line-height: 19px&quot;&gt;&lt;font style=&quot;font-size: 12px&quot; color=&quot;#ffffff&quot;&gt;- updateMinValue(input: HTMLElement): void&lt;/font&gt;&lt;/div&gt;" style="text;html=1;align=left;verticalAlign=middle;resizable=0;points=[];autosize=1;" parent="72" vertex="1">
                    <mxGeometry x="10" y="660" width="250" height="20" as="geometry"/>
                </mxCell>
                <mxCell id="427" value="&lt;div style=&quot;line-height: 19px&quot;&gt;&lt;font style=&quot;font-size: 12px&quot; color=&quot;#ffffff&quot;&gt;- updateStepValue(input: HTMLElement): void&lt;/font&gt;&lt;/div&gt;" style="text;html=1;align=left;verticalAlign=middle;resizable=0;points=[];autosize=1;" parent="72" vertex="1">
                    <mxGeometry x="10" y="680" width="260" height="20" as="geometry"/>
                </mxCell>
                <mxCell id="458" value="&lt;div style=&quot;line-height: 19px&quot;&gt;&lt;font style=&quot;font-size: 12px&quot; color=&quot;#ffffff&quot;&gt;- showTrackView(): void&lt;/font&gt;&lt;/div&gt;" style="text;html=1;align=left;verticalAlign=middle;resizable=0;points=[];autosize=1;" parent="72" vertex="1">
                    <mxGeometry x="10" y="620" width="140" height="20" as="geometry"/>
                </mxCell>
                <mxCell id="459" value="&lt;div style=&quot;line-height: 19px&quot;&gt;&lt;font style=&quot;font-size: 12px&quot; color=&quot;#ffffff&quot;&gt;- setFromValue(current: number): {value: number, stepPercentResult: number}&lt;/font&gt;&lt;/div&gt;" style="text;html=1;align=left;verticalAlign=middle;resizable=0;points=[];autosize=1;" parent="72" vertex="1">
                    <mxGeometry x="10" y="480" width="430" height="20" as="geometry"/>
                </mxCell>
                <mxCell id="461" value="&lt;div style=&quot;line-height: 19px&quot;&gt;&lt;font style=&quot;font-size: 12px&quot; color=&quot;#ffffff&quot;&gt;+ updateView(bool: boolean): void&lt;/font&gt;&lt;/div&gt;" style="text;html=1;align=left;verticalAlign=middle;resizable=0;points=[];autosize=1;" vertex="1" parent="72">
                    <mxGeometry x="10" y="180" width="200" height="20" as="geometry"/>
                </mxCell>
                <mxCell id="408" style="edgeStyle=orthogonalEdgeStyle;rounded=0;orthogonalLoop=1;jettySize=auto;html=1;exitX=1;exitY=0.5;exitDx=0;exitDy=0;entryX=0.068;entryY=0;entryDx=0;entryDy=0;entryPerimeter=0;" parent="1" source="158" target="24" edge="1">
                    <mxGeometry relative="1" as="geometry"/>
                </mxCell>
                <mxCell id="432" style="edgeStyle=orthogonalEdgeStyle;rounded=0;orthogonalLoop=1;jettySize=auto;html=1;exitX=1;exitY=0.25;exitDx=0;exitDy=0;fillColor=#a20025;strokeColor=#6F0000;" parent="1" source="158" edge="1">
                    <mxGeometry relative="1" as="geometry">
                        <mxPoint x="1131" y="1690" as="targetPoint"/>
                    </mxGeometry>
                </mxCell>
                <mxCell id="158" value="ConfiguringView" style="swimlane;swimlaneFillColor=#333333;" parent="1" vertex="1">
                    <mxGeometry x="781" y="1960" width="258" height="80" as="geometry"/>
                </mxCell>
                <mxCell id="159" value="&lt;div style=&quot;line-height: 19px&quot;&gt;&lt;br&gt;&lt;/div&gt;" style="text;html=1;align=left;verticalAlign=middle;resizable=0;points=[];autosize=1;" parent="158" vertex="1">
                    <mxGeometry x="8" y="90" width="20" height="20" as="geometry"/>
                </mxCell>
                <mxCell id="381" value="&lt;div style=&quot;line-height: 19px&quot;&gt;&lt;font style=&quot;font-size: 12px&quot; color=&quot;#ffffff&quot;&gt;+ handleInputChange(evt: Event): void&lt;/font&gt;&lt;/div&gt;" style="text;html=1;align=left;verticalAlign=middle;resizable=0;points=[];autosize=1;" parent="158" vertex="1">
                    <mxGeometry x="4" y="30" width="220" height="20" as="geometry"/>
                </mxCell>
                <mxCell id="429" style="edgeStyle=orthogonalEdgeStyle;rounded=0;orthogonalLoop=1;jettySize=auto;html=1;exitX=0;exitY=0.25;exitDx=0;exitDy=0;fillColor=#a20025;strokeColor=#6F0000;" parent="1" source="171" edge="1">
                    <mxGeometry relative="1" as="geometry">
                        <mxPoint x="1440" y="1690" as="targetPoint"/>
                    </mxGeometry>
                </mxCell>
                <mxCell id="171" value="ProgressView" style="swimlane;swimlaneFillColor=#333333;startSize=23;" parent="1" vertex="1">
                    <mxGeometry x="1520" y="1840" width="246.5" height="80" as="geometry"/>
                </mxCell>
                <mxCell id="172" value="&lt;div style=&quot;line-height: 19px&quot;&gt;&lt;br&gt;&lt;/div&gt;" style="text;html=1;align=left;verticalAlign=middle;resizable=0;points=[];autosize=1;" parent="171" vertex="1">
                    <mxGeometry x="8" y="90" width="20" height="20" as="geometry"/>
                </mxCell>
                <mxCell id="174" value="&lt;div style=&quot;line-height: 19px&quot;&gt;&lt;br&gt;&lt;/div&gt;" style="text;html=1;align=left;verticalAlign=middle;resizable=0;points=[];autosize=1;" parent="171" vertex="1">
                    <mxGeometry x="8" y="50" width="20" height="20" as="geometry"/>
                </mxCell>
                <mxCell id="311" value="&lt;div style=&quot;line-height: 19px&quot;&gt;&lt;font style=&quot;font-size: 12px&quot; color=&quot;#ffffff&quot;&gt;+ handleBarClick(evt: Event): void&lt;/font&gt;&lt;/div&gt;" style="text;html=1;align=left;verticalAlign=middle;resizable=0;points=[];autosize=1;" parent="171" vertex="1">
                    <mxGeometry x="8" y="30" width="200" height="20" as="geometry"/>
                </mxCell>
                <mxCell id="430" style="edgeStyle=orthogonalEdgeStyle;rounded=0;orthogonalLoop=1;jettySize=auto;html=1;exitX=0;exitY=0.25;exitDx=0;exitDy=0;fillColor=#a20025;strokeColor=#6F0000;" parent="1" source="182" edge="1">
                    <mxGeometry relative="1" as="geometry">
                        <mxPoint x="1380" y="1690" as="targetPoint"/>
                    </mxGeometry>
                </mxCell>
                <mxCell id="182" value="FlagView" style="swimlane;swimlaneFillColor=#333333;" parent="1" vertex="1">
                    <mxGeometry x="1520" y="1960" width="246" height="80" as="geometry"/>
                </mxCell>
                <mxCell id="183" value="&lt;div style=&quot;line-height: 19px&quot;&gt;&lt;br&gt;&lt;/div&gt;" style="text;html=1;align=left;verticalAlign=middle;resizable=0;points=[];autosize=1;" parent="182" vertex="1">
                    <mxGeometry x="8" y="90" width="20" height="20" as="geometry"/>
                </mxCell>
                <mxCell id="396" value="&lt;div style=&quot;line-height: 19px&quot;&gt;&lt;font style=&quot;font-size: 12px&quot; color=&quot;#ffffff&quot;&gt;+ handleFlagMouseDown(evt: Event): void&lt;/font&gt;&lt;/div&gt;" style="text;html=1;align=left;verticalAlign=middle;resizable=0;points=[];autosize=1;" parent="182" vertex="1">
                    <mxGeometry x="6" y="30" width="240" height="20" as="geometry"/>
                </mxCell>
                <mxCell id="443" style="edgeStyle=orthogonalEdgeStyle;rounded=0;orthogonalLoop=1;jettySize=auto;html=1;" parent="1" source="363" edge="1">
                    <mxGeometry relative="1" as="geometry">
                        <mxPoint x="1150" y="845" as="targetPoint"/>
                    </mxGeometry>
                </mxCell>
                <mxCell id="363" value="sliderJquery" style="swimlane;swimlaneFillColor=#333333;" parent="1" vertex="1">
                    <mxGeometry x="880" y="810" width="200" height="70" as="geometry"/>
                </mxCell>
                <mxCell id="412" style="edgeStyle=orthogonalEdgeStyle;rounded=0;orthogonalLoop=1;jettySize=auto;html=1;entryX=0.707;entryY=-0.017;entryDx=0;entryDy=0;entryPerimeter=0;" parent="1" source="404" target="24" edge="1">
                    <mxGeometry relative="1" as="geometry"/>
                </mxCell>
                <mxCell id="428" style="edgeStyle=orthogonalEdgeStyle;rounded=0;orthogonalLoop=1;jettySize=auto;html=1;exitX=0;exitY=0.25;exitDx=0;exitDy=0;fillColor=#a20025;strokeColor=#6F0000;" parent="1" source="404" edge="1">
                    <mxGeometry relative="1" as="geometry">
                        <mxPoint x="1480" y="1690" as="targetPoint"/>
                    </mxGeometry>
                </mxCell>
                <mxCell id="404" value="ScaleView" style="swimlane;swimlaneFillColor=#333333;startSize=23;" parent="1" vertex="1">
                    <mxGeometry x="1519.5" y="1720" width="246.5" height="80" as="geometry"/>
                </mxCell>
                <mxCell id="405" value="&lt;div style=&quot;line-height: 19px&quot;&gt;&lt;br&gt;&lt;/div&gt;" style="text;html=1;align=left;verticalAlign=middle;resizable=0;points=[];autosize=1;" parent="404" vertex="1">
                    <mxGeometry x="8" y="90" width="20" height="20" as="geometry"/>
                </mxCell>
                <mxCell id="406" value="&lt;div style=&quot;line-height: 19px&quot;&gt;&lt;br&gt;&lt;/div&gt;" style="text;html=1;align=left;verticalAlign=middle;resizable=0;points=[];autosize=1;" parent="404" vertex="1">
                    <mxGeometry x="8" y="50" width="20" height="20" as="geometry"/>
                </mxCell>
                <mxCell id="407" value="&lt;div style=&quot;line-height: 19px&quot;&gt;&lt;font style=&quot;font-size: 12px&quot; color=&quot;#ffffff&quot;&gt;+ handleItemClick(evt: Event): void&lt;/font&gt;&lt;/div&gt;" style="text;html=1;align=left;verticalAlign=middle;resizable=0;points=[];autosize=1;" parent="404" vertex="1">
                    <mxGeometry x="8" y="30" width="200" height="20" as="geometry"/>
                </mxCell>
                <mxCell id="409" style="edgeStyle=orthogonalEdgeStyle;rounded=0;orthogonalLoop=1;jettySize=auto;html=1;entryX=0.157;entryY=-0.012;entryDx=0;entryDy=0;entryPerimeter=0;" parent="1" target="24" edge="1">
                    <mxGeometry relative="1" as="geometry">
                        <mxPoint x="1040" y="1880" as="sourcePoint"/>
                    </mxGeometry>
                </mxCell>
                <mxCell id="410" style="edgeStyle=orthogonalEdgeStyle;rounded=0;orthogonalLoop=1;jettySize=auto;html=1;entryX=0.889;entryY=-0.017;entryDx=0;entryDy=0;entryPerimeter=0;" parent="1" target="24" edge="1">
                    <mxGeometry relative="1" as="geometry">
                        <mxPoint x="1520" y="2000" as="sourcePoint"/>
                    </mxGeometry>
                </mxCell>
                <mxCell id="411" style="edgeStyle=orthogonalEdgeStyle;rounded=0;orthogonalLoop=1;jettySize=auto;html=1;entryX=0.8;entryY=-0.012;entryDx=0;entryDy=0;entryPerimeter=0;" parent="1" target="24" edge="1">
                    <mxGeometry relative="1" as="geometry">
                        <mxPoint x="1520" y="1880" as="sourcePoint"/>
                        <Array as="points">
                            <mxPoint x="1520" y="1880"/>
                            <mxPoint x="1402" y="1880"/>
                        </Array>
                    </mxGeometry>
                </mxCell>
                <mxCell id="435" value="Observer" style="swimlane;swimlaneFillColor=#333333;" parent="1" vertex="1">
                    <mxGeometry x="520" y="990" width="370" height="120" as="geometry"/>
                </mxCell>
                <mxCell id="436" value="&lt;div style=&quot;line-height: 19px&quot;&gt;&lt;font style=&quot;font-size: 12px&quot; color=&quot;#ffffff&quot;&gt;- observers: Function[ ]&lt;/font&gt;&lt;/div&gt;" style="text;html=1;align=left;verticalAlign=middle;resizable=0;points=[];autosize=1;" parent="435" vertex="1">
                    <mxGeometry x="10" y="30" width="140" height="20" as="geometry"/>
                </mxCell>
                <mxCell id="438" value="&lt;div style=&quot;line-height: 19px&quot;&gt;&lt;font style=&quot;font-size: 12px&quot; color=&quot;#ffffff&quot;&gt;+ subscribe(fn: Function)&lt;/font&gt;&lt;/div&gt;" style="text;html=1;align=left;verticalAlign=middle;resizable=0;points=[];autosize=1;" parent="435" vertex="1">
                    <mxGeometry x="10" y="60" width="150" height="20" as="geometry"/>
                </mxCell>
                <mxCell id="439" value="&lt;div style=&quot;line-height: 19px&quot;&gt;&lt;font style=&quot;font-size: 12px&quot; color=&quot;#ffffff&quot;&gt;+ broadcast(keys: string [ ], values: (number | string | boolean)[ ])&lt;/font&gt;&lt;/div&gt;" style="text;html=1;align=left;verticalAlign=middle;resizable=0;points=[];autosize=1;" parent="435" vertex="1">
                    <mxGeometry x="10" y="80" width="360" height="20" as="geometry"/>
                </mxCell>
                <mxCell id="437" value="" style="line;strokeWidth=2;html=1;" parent="1" vertex="1">
                    <mxGeometry x="520" y="1040" width="370" height="10" as="geometry"/>
                </mxCell>
                <mxCell id="442" style="edgeStyle=orthogonalEdgeStyle;rounded=0;orthogonalLoop=1;jettySize=auto;html=1;entryX=1;entryY=0.5;entryDx=0;entryDy=0;" parent="1" target="435" edge="1">
                    <mxGeometry relative="1" as="geometry">
                        <mxPoint x="940" y="1050" as="sourcePoint"/>
                    </mxGeometry>
                </mxCell>
                <mxCell id="453" style="edgeStyle=orthogonalEdgeStyle;rounded=0;orthogonalLoop=1;jettySize=auto;html=1;entryX=0.5;entryY=0;entryDx=0;entryDy=0;" parent="1" source="445" target="3" edge="1">
                    <mxGeometry relative="1" as="geometry"/>
                </mxCell>
                <mxCell id="460" style="edgeStyle=orthogonalEdgeStyle;rounded=0;orthogonalLoop=1;jettySize=auto;html=1;exitX=0;exitY=0.5;exitDx=0;exitDy=0;entryX=0.459;entryY=-0.025;entryDx=0;entryDy=0;entryPerimeter=0;" edge="1" parent="1" source="445" target="435">
                    <mxGeometry relative="1" as="geometry"/>
                </mxCell>
                <mxCell id="445" value="Model" style="swimlane;startSize=23;swimlaneFillColor=#333333;" parent="1" vertex="1">
                    <mxGeometry x="980" y="580" width="580" height="190" as="geometry">
                        <mxRectangle x="314" y="80" width="100" height="23" as="alternateBounds"/>
                    </mxGeometry>
                </mxCell>
                <mxCell id="446" value="" style="line;strokeWidth=2;html=1;" parent="445" vertex="1">
                    <mxGeometry y="70" width="580" height="10" as="geometry"/>
                </mxCell>
                <mxCell id="447" value="&lt;div style=&quot;line-height: 19px&quot;&gt;&lt;font style=&quot;font-size: 12px&quot; color=&quot;#ffffff&quot;&gt;+ getMainName(): string&lt;/font&gt;&lt;/div&gt;" style="text;html=1;align=left;verticalAlign=middle;resizable=0;points=[];autosize=1;" parent="445" vertex="1">
                    <mxGeometry x="10" y="80" width="140" height="20" as="geometry"/>
                </mxCell>
                <mxCell id="448" value="&lt;font color=&quot;#ffffff&quot;&gt;+ state: StateType&lt;/font&gt;" style="text;html=1;align=left;verticalAlign=middle;resizable=0;points=[];autosize=1;" parent="445" vertex="1">
                    <mxGeometry x="9" y="50" width="110" height="20" as="geometry"/>
                </mxCell>
                <mxCell id="449" value="&lt;font color=&quot;#ffffff&quot;&gt;+ main: HTMLElement&lt;/font&gt;" style="text;html=1;align=left;verticalAlign=middle;resizable=0;points=[];autosize=1;" parent="445" vertex="1">
                    <mxGeometry x="10" y="30" width="140" height="20" as="geometry"/>
                </mxCell>
                <mxCell id="450" value="&lt;div style=&quot;line-height: 19px&quot;&gt;&lt;font style=&quot;font-size: 12px&quot; color=&quot;#ffffff&quot;&gt;+ getStepValue(value: number): number&lt;/font&gt;&lt;/div&gt;" style="text;html=1;align=left;verticalAlign=middle;resizable=0;points=[];autosize=1;" parent="445" vertex="1">
                    <mxGeometry x="9" y="100" width="230" height="20" as="geometry"/>
                </mxCell>
                <mxCell id="451" value="&lt;div style=&quot;line-height: 19px&quot;&gt;&lt;font style=&quot;font-size: 12px&quot; color=&quot;#ffffff&quot;&gt;+ getPercentScale(main: HTMLElement): {percent: number, stepPercent: number, scale: number}&lt;/font&gt;&lt;/div&gt;" style="text;html=1;align=left;verticalAlign=middle;resizable=0;points=[];autosize=1;" parent="445" vertex="1">
                    <mxGeometry x="10" y="140" width="530" height="20" as="geometry"/>
                </mxCell>
                <mxCell id="454" value="&lt;div style=&quot;line-height: 19px&quot;&gt;&lt;font style=&quot;font-size: 12px&quot; color=&quot;#ffffff&quot;&gt;+ getStepCount(corner: number): {stepCount: number, stepPersent: number, stepPercentResult: number}&lt;/font&gt;&lt;/div&gt;" style="text;html=1;align=left;verticalAlign=middle;resizable=0;points=[];autosize=1;" parent="445" vertex="1">
                    <mxGeometry x="10" y="120" width="570" height="20" as="geometry"/>
                </mxCell>
                <mxCell id="455" value="&lt;div style=&quot;line-height: 19px&quot;&gt;&lt;font style=&quot;font-size: 12px&quot; color=&quot;#ffffff&quot;&gt;+ setValue(keys: string [ ], values: (number | string | boolean)[ ]): void&lt;/font&gt;&lt;/div&gt;" style="text;html=1;align=left;verticalAlign=middle;resizable=0;points=[];autosize=1;" parent="445" vertex="1">
                    <mxGeometry x="10" y="160" width="380" height="20" as="geometry"/>
                </mxCell>
            </root>
        </mxGraphModel>
    </diagram>
</mxfile>